<?xml version="1.0" encoding="utf-8"?>
<!-- Generator: Adobe Illustrator 22.0.1, SVG Export Plug-In . SVG Version: 6.00 Build 0)  -->
<svg version="1.1" id="Layer_1" xmlns="http://www.w3.org/2000/svg" xmlns:xlink="http://www.w3.org/1999/xlink" x="0px" y="0px"
	 viewBox="0 0 30 30" style="enable-background:new 0 0 500 500;" xml:space="preserve">
<g>
	<path d="M21.53 20.47l-3.66-3.66C19.195 15.24 20 13.214 20 11c0-4.97-4.03-9-9-9s-9 4.03-9 9 4.03 9 9 9c2.215 0 4.24-.804 5.808-2.13l3.66 3.66c.147.146.34.22.53.22s.385-.073.53-.22c.295-.293.295-.767.002-1.06zM3.5 11c0-4.135 3.365-7.5 7.5-7.5s7.5 3.365 7.5 7.5-3.365 7.5-7.5 7.5-7.5-3.365-7.5-7.5z"/>
</g>
</svg>